<svg width="48" height="48" viewBox="0 0 48 48" fill="none" xmlns="http://www.w3.org/2000/svg">
<path fill-rule="evenodd" clip-rule="evenodd" d="M17 10C17 6.13401 20.134 3 24 3C27.866 3 31 6.13401 31 10V22C31 25.866 27.866 29 24 29C20.134 29 17 25.866 17 22V10ZM24 5C21.2386 5 19 7.23858 19 10V22C19 24.7614 21.2386 27 24 27C26.7614 27 29 24.7614 29 22V10C29 7.23858 26.7614 5 24 5ZM12 21C12.5523 21 13 21.4477 13 22C13 28.0751 17.9249 33 24 33C30.0751 33 35 28.0751 35 22C35 21.4477 35.4477 21 36 21C36.5523 21 37 21.4477 37 22C37 28.8432 31.7124 34.4515 25 34.9621V41C25 41.5523 24.5523 42 24 42C23.4477 42 23 41.5523 23 41V34.9621C16.2876 34.4515 11 28.8432 11 22C11 21.4477 11.4477 21 12 21Z" fill="white"/>
</svg>
