<svg width="302" height="302" viewBox="0 0 302 302" fill="none" xmlns="http://www.w3.org/2000/svg">
<path opacity="0.2" d="M151 243C134.148 243 117.594 238.564 103 230.138C88.4062 221.713 76.2873 209.594 67.8616 195C59.4358 180.406 55 163.852 55 147C55 130.148 59.4358 113.594 67.8616 99L151 147L151 243Z" fill="#2EC68F"/>
<path opacity="0.2" d="M55 147C55 130.148 59.4358 113.594 67.8616 99C76.2873 84.4062 88.4062 72.2873 103 63.8616C117.594 55.4358 134.148 51 151 51C167.852 51 184.406 55.4358 199 63.8616L151 147L55 147Z" fill="#2EC68F"/>
<path opacity="0.3" d="M255 147C255 167.569 248.901 187.677 237.473 204.779C226.045 221.882 209.803 235.212 190.799 243.083C171.796 250.955 150.885 253.015 130.711 249.002C110.537 244.989 92.0056 235.084 77.4609 220.539C62.9162 205.994 53.0112 187.463 48.9983 167.289C44.9855 147.115 47.045 126.204 54.9165 107.201C62.788 88.1974 76.118 71.9548 93.2207 60.5272C110.323 49.0995 130.431 43 151 43V147H255Z" fill="#2EC68F"/>
<g filter="url(#filter0_d_124_758)">
<circle cx="151" cy="147" r="107" fill="#2EC68F"/>
</g>
<path fill-rule="evenodd" clip-rule="evenodd" d="M144 133C144 129.134 147.134 126 151 126C154.866 126 158 129.134 158 133V145C158 148.866 154.866 152 151 152C147.134 152 144 148.866 144 145V133ZM151 128C148.239 128 146 130.239 146 133V145C146 147.761 148.239 150 151 150C153.761 150 156 147.761 156 145V133C156 130.239 153.761 128 151 128ZM139 144C139.552 144 140 144.448 140 145C140 151.075 144.925 156 151 156C157.075 156 162 151.075 162 145C162 144.448 162.448 144 163 144C163.552 144 164 144.448 164 145C164 151.843 158.712 157.451 152 157.962V164C152 164.552 151.552 165 151 165C150.448 165 150 164.552 150 164V157.962C143.288 157.451 138 151.843 138 145C138 144.448 138.448 144 139 144Z" fill="white"/>
<defs>
<filter id="filter0_d_124_758" x="0" y="0" width="302" height="302" filterUnits="userSpaceOnUse" color-interpolation-filters="sRGB">
<feFlood flood-opacity="0" result="BackgroundImageFix"/>
<feColorMatrix in="SourceAlpha" type="matrix" values="0 0 0 0 0 0 0 0 0 0 0 0 0 0 0 0 0 0 127 0" result="hardAlpha"/>
<feOffset dy="4"/>
<feGaussianBlur stdDeviation="22"/>
<feColorMatrix type="matrix" values="0 0 0 0 0.180392 0 0 0 0 0.776471 0 0 0 0 0.560784 0 0 0 0.38 0"/>
<feBlend mode="normal" in2="BackgroundImageFix" result="effect1_dropShadow_124_758"/>
<feBlend mode="normal" in="SourceGraphic" in2="effect1_dropShadow_124_758" result="shape"/>
</filter>
</defs>
</svg>
